<svg xmlns="http://www.w3.org/2000/svg" width="73.246" height="207.94" viewBox="0 0 73.246 207.94">
  <g id="dress" transform="translate(-93.75 -32.79)">
    <path id="Path_850" data-name="Path 850" d="M152.547,254.121c0,3.5-10.491,6.331-23.433,6.331s-23.433-2.834-23.433-6.331,10.491-6.331,23.433-6.331S152.547,250.624,152.547,254.121Z" transform="translate(5.162 -19.721)" fill="#c8bdb9"/>
    <g id="Group_18" data-name="Group 18" transform="translate(93.75 32.79)">
      <path id="Path_851" data-name="Path 851" d="M125.062,113.58c-.018.581-3.66,13.978-4.7,20.663s-4.687,53.933-4.687,53.933,2.534,1.172,7.221,0,5.858.781,10.345,2.343,5.077,1.953,8.592,0,10.545-.391,11.517-2.543-2.08-62.943-7.484-69.256Z" transform="translate(-89.504 -40.201)"/>
      <path id="Path_852" data-name="Path 852" d="M133.657,196.628s-1.735,21.235-1.826,30.927,0,23.706-1.1,24.233-3.833-.109-5.114-5.777,3.56-13,2.28-18.456-4.051-25.5-5.041-32.135,4.487-4.087,4.759-4S133.657,196.628,133.657,196.628Z" transform="translate(-93.471 -47.29)" fill="#fbdbac"/>
      <path id="Path_853" data-name="Path 853" d="M142.579,195.708s-1.553,7.3-4.378,19.355-2.734,16.249-.727,23.279,5.931,11.935,4.56,12.87-7.393-2.988-9.582-7.339,0-49.074,0-49.074Z" transform="translate(-93.375 -47.651)" fill="#fbdbac"/>
      <path id="Path_854" data-name="Path 854" d="M153.409,185a23.151,23.151,0,0,1-.173,4.55c-.981,2.153-8.011.581-11.526,2.543s-4.1,1.562-8.592,0-5.659-3.515-10.345-2.343a13.1,13.1,0,0,1-6.73.173c-.236,2.979-.372,4.8-.372,4.8s2.534,1.172,7.221,0,5.858.781,10.345,2.343,5.077,1.953,8.592,0,10.545-.391,11.517-2.543C153.59,194.028,153.6,190.386,153.409,185Z" transform="translate(-89.504 -46.752)" fill="#706f6f"/>
      <path id="Path_855" data-name="Path 855" d="M118.61,91.249a41.06,41.06,0,0,0,3.315,10.808c2.343,4.423,2.807,3.906,2.743,5.141a2.221,2.221,0,0,0,.654,2.153c.581.627-.863,2.607-.863,2.607l8.856,16.73h8.529l4.3-13.67a52.143,52.143,0,0,1-.781-6.767c.127-1.435,5.531-16.985,5.531-16.985s-11.744-18.4-12.216-18.147C138.2,73.347,118.61,91.249,118.61,91.249Z" transform="translate(-91.96 -36.489)" fill="#706f6f"/>
      <path id="Path_856" data-name="Path 856" d="M120.737,118.567c.145-.145,1.063-.854,1.063-.854s3.7-4.178,5.177-4.678,8.283-.209,8.138.636-3.406.917-4.968,1.771-3.188,1.844-2.225,1.7,4.85-1.417,4.569-.854-2.271,1.135-4.323,2.271-3.824,3.261-5.459,3.615a12.16,12.16,0,0,1-2.888.291Z" transform="translate(-93.275 -40.128)" fill="#fbdbac"/>
      <path id="Path_857" data-name="Path 857" d="M153.52,98.906a35.717,35.717,0,0,1,2.788-6.049c1.435-2.216,2.08-5.468,2.925-5.268s-.327,3.315-.327,3.315,6.639-5.123,7.23-4.451-1.953,3.47-2.471,4,1.172.718.845,2.67-3.869,6.312-6.885,8.429S153.856,100.668,153.52,98.906Z" transform="translate(-92.976 -37.707)" fill="#fbdbac"/>
      <path id="Path_858" data-name="Path 858" d="M125.054,69.77l-4.081.345a51.83,51.83,0,0,0-5.569.79c-2.191.5-5.1,2.688-8.625,9.782A189.99,189.99,0,0,1,96.032,99.461c-2.433,3.542-2.664,6.8-1.88,7.439s25.413,12.044,25.413,12.044,2.825-2.625,2.584-5.168c0,0-14.978-8.429-16.074-9.782s-.08-2.053-.392-2.625,12.154-13.034,12.154-13.034l-.231,4.042,15.763-.563,6.745-16.44,6.192,16.158,7.529.209s-6.273,11.2-6.353,15.1c0,0,.553,6.24,1.649,6.3s6.745-7.657,9.248-13.106c0,0-3.528.5-3.921-2.834,0,0,1.257-10.627,2.905-14.451s2.584-9.437-3.528-10.036-13.963-.663-13.963-.663Z" transform="translate(-93.75 -36.182)"/>
      <path id="Path_859" data-name="Path 859" d="M130.258,66.41s-9.637,3.388-9.419,3.4a32.318,32.318,0,0,1,4.7,1.708c-.173.145-3.642.354-3.715.563s5.877,8.293,7.72,12.543l8.574-11.335,6.985,11.335L150.522,72.4s-8.629-1.907-10.164-4.8Z" transform="translate(-92.108 -35.874)" fill="#dadada"/>
      <path id="Path_860" data-name="Path 860" d="M149.9,53.779a22.86,22.86,0,0,0,.245,4.832c.291,1.317.926,1.953.49,2.3s-1.172,0-1.371.436-1.762,2.389-1.953,2.925.145,2.779-1.562,2.634-3.56-2-3.706-2-3.224,5.9-3.37,6-6.594-6.349-6.985-7.275a7.278,7.278,0,0,1-.436-3.315c.145-.827,2.589-3.615,3.2-4.687a26.07,26.07,0,0,1,4.033-4.2c.827-.681,3.906-1.172,4.151-1.126S149.9,53.779,149.9,53.779Z" transform="translate(-92.696 -34.397)" fill="#fbdbac"/>
      <path id="Path_861" data-name="Path 861" d="M141.732,50.3a3.289,3.289,0,0,1-1.063,3.4c-1.7,1.444-1.826,1.444-1.826,3.143s-.254.336-.3-.89.173-3.061-1.063-2.253-1.317,3.533-3.061,4.932-2.725.936-2.725.936a6.159,6.159,0,0,1-2.3,4.8s-2.634.936-3.061-2.38,3.106-5.867,3.106-5.867a1.523,1.523,0,0,1,.336-1.272c.509-.636-.209-4.632,1.871-8.12s4.378-4.251,4.505-4.251S141.859,49.11,141.732,50.3Z" transform="translate(-93.14 -33.679)" fill="#634e42"/>
      <path id="Path_862" data-name="Path 862" d="M153.183,36.06c-.173.045-5.141-3.27-9.946-3.27s-10.327,4.124-7.82,9.737,8.928,10.164,12.8,11.562S158.378,51.709,158,47.2s-1.662-6.421-1.444-7.266.808-4.332-.854-4.251A9.526,9.526,0,0,0,153.183,36.06Z" transform="translate(-91.258 -32.79)"/>
      <path id="Path_863" data-name="Path 863" d="M130.957,64.37s-2.416,6.6-5.677,10.5c0,0,8.2-3.769,12.852-2.661,0,0,5.577.182,8.547,2.661,0,0-5.94-4.85-5.913-7.457l-2.879,4.051Z" transform="translate(-92.712 -35.687)" fill="#fff"/>
      <rect id="Rectangle_1574" data-name="Rectangle 1574" width="0.481" height="54.778" transform="translate(45.83 37.412)"/>
      <path id="Path_864" data-name="Path 864" d="M138.822,83.081a.681.681,0,1,1-.681-.681A.68.68,0,0,1,138.822,83.081Z" transform="translate(-93.975 -37.341)"/>
      <path id="Path_865" data-name="Path 865" d="M138.822,89.321a.681.681,0,1,1-.681-.681A.68.68,0,0,1,138.822,89.321Z" transform="translate(-93.975 -37.913)"/>
      <path id="Path_866" data-name="Path 866" d="M138.822,95.551a.681.681,0,1,1-.681-.681A.68.68,0,0,1,138.822,95.551Z" transform="translate(-93.975 -38.484)"/>
      <path id="Path_867" data-name="Path 867" d="M138.822,101.791a.681.681,0,1,1-.681-.681A.68.68,0,0,1,138.822,101.791Z" transform="translate(-93.975 -39.057)"/>
      <path id="Path_868" data-name="Path 868" d="M138.822,108.021a.681.681,0,1,1-.681-.681A.68.68,0,0,1,138.822,108.021Z" transform="translate(-93.975 -39.628)"/>
      <path id="Path_869" data-name="Path 869" d="M138.822,114.261a.681.681,0,1,1-.681-.681A.68.68,0,0,1,138.822,114.261Z" transform="translate(-93.975 -40.201)"/>
      <path id="Path_870" data-name="Path 870" d="M138.822,120.491a.681.681,0,1,1-.681-.681A.68.68,0,0,1,138.822,120.491Z" transform="translate(-93.975 -40.772)"/>
      <path id="Path_871" data-name="Path 871" d="M138.822,126.731a.681.681,0,1,1-.681-.681A.68.68,0,0,1,138.822,126.731Z" transform="translate(-93.975 -41.344)"/>
      <path id="Path_872" data-name="Path 872" d="M138.822,132.961a.681.681,0,1,1-.681-.681A.68.68,0,0,1,138.822,132.961Z" transform="translate(-93.975 -41.916)"/>
    </g>
  </g>
</svg>
