<svg xmlns="http://www.w3.org/2000/svg" width="313.696" height="143.864" viewBox="0 0 313.696 143.864">
  <g id="Group_1" data-name="Group 1" transform="translate(-202.147 52.271)">
    <path id="Twisted_Leaf" data-name="Twisted Leaf" d="M3.775,1.334A7.414,7.414,0,0,1,6.162.692,38.719,38.719,0,0,1,13.626,0,137.709,137.709,0,0,1,36.7,2.074c4.8.83,10.61,3.622,15.388,2.106,8.324-2.642,16.738-2.512,24.635,1.26,7.221,3.449,12.7,10,15.9,17.078a43.407,43.407,0,0,1,2.995,7.652c.237.542.465,1.088.67,1.642.582,1.573,1.1,3.173,1.59,4.777.207.684.729,2.194.11,2.486a45.461,45.461,0,0,1,2.6,5.652c2.125,5.652,4.448,11.851,5.2,17.841a27.912,27.912,0,0,1,.03,6.671c-.127,1.1-.074,3.307-.819,4.142-1.58,1.772-2.392-.709-2.214-1.89,1.361-9.006-1.267-17.464-4.38-25.93a53.276,53.276,0,0,0-9.027-15.019,37.906,37.906,0,0,0-10.328-9,161.472,161.472,0,0,0-15.728-7.8c-3.5-1.588-7.009-3.134-10.61-4.5a10.575,10.575,0,0,0-2.948-1.088c-1.877-.007-4.537,1.379-6.351,1.894-5.964,1.7-12,3.867-18.168,4.733A23.43,23.43,0,0,1,13.887,13.4a10.628,10.628,0,0,1-1.787-.974,25.936,25.936,0,0,1-7.6-4.3A30.324,30.324,0,0,1,.933,4.282a2.011,2.011,0,0,1-.47-1.264C.219,2.891.057,2.741.02,2.567-.249,1.281,2.2,1.258,3.775,1.334" transform="translate(202.147 87.72) rotate(-87)" fill="#89c5cc" opacity="0.3"/>
    <path id="Fill_10" data-name="Fill 10" d="M2.02.66A47.063,47.063,0,0,1,12.671.033,66.182,66.182,0,0,1,61.511,23.2c10.138,12,12.926,26.92,14.928,42,.2,1.5.284,2.985.4,4.486.024.322.06.609.1.88A1.937,1.937,0,0,1,77.668,73a100.261,100.261,0,0,1,4.462,11.706c3.707,11.82,7.478,23.865,5.155,36.294a173.657,173.657,0,0,0-3.049-20.562c-.079-.386-.163-.769-.252-1.151-.009-.04-.017-.081-.027-.121a44.964,44.964,0,0,0-1.875-6.026c-.008-.022-.016-.043-.024-.064-.1-.259-.208-.516-.314-.774-.219-.533-.444-1.065-.682-1.594q-.121-.27-.232-.546c-1.112-2.726-1.582-5.8-2.578-8.618q-.358-.962-.749-1.916l-.047-.112c-.706-1.71-1.485-3.4-2.31-5.071a6.244,6.244,0,0,1-1.074-1.931,12.073,12.073,0,0,1-.891-1.722q-.728-1.409-1.458-2.816l.044.016q-.734-1.35-1.467-2.689l-.323-.589-.524-.938c-1.632-2.921-3.363-5.783-5.16-8.61-.641-1.009-2.174-2.455-2.468-3.588-.011-.042-.013-.081-.02-.122A64.29,64.29,0,0,0,48.033,36.924c.651.7,2.034,3.091,2.4,3.564,1.119,1.447,2.334,2.795,3.554,4.158A88.517,88.517,0,0,1,60.2,52.274,144.959,144.959,0,0,1,69.481,67.51c.027.031.056.06.082.091,1.42,1.751,2.314,4.4,3.337,6.4-4.046-1.874-8.521-3.1-12.674-4.759a104.134,104.134,0,0,1-12.059-5.676A134.574,134.574,0,0,1,32.75,53.743,61.078,61.078,0,0,1,18.3,40.477C13.385,34.543,8.883,28.558,6.1,21.353A57.426,57.426,0,0,1,3.017,10.386c-.028-.163-.064-.339-.1-.523A35.925,35.925,0,0,1,1.189,5.906C.412,3.766-1.425,1.412,2.02.66" transform="translate(226.794 67.263) rotate(-87)" fill="#69a1ac" opacity="0.3"/>
    <path id="Fill_1" data-name="Fill 1" d="M2.014,3.376C5.959.7,11.2,0,15.924,0,34.36,0,51.689,6.84,66.659,17.032a118.671,118.671,0,0,1,22.019,20.1,58.867,58.867,0,0,1,9.434,14.041,48.374,48.374,0,0,1,3.427,10.818A111.159,111.159,0,0,1,103.485,75.8c.128,1.82,1.185,11.477-1.841,11.641a4.177,4.177,0,0,1,0,.668c6.57,10.274,10.63,22.314,14.394,33.729a229.731,229.731,0,0,1,8.088,30.228,329.391,329.391,0,0,1,4.912,40.987c.167,2.949.282,5.9.381,8.854q.126,3.779.251,7.557c.092,2.823.589,6.073.14,8.88-.391,2.444-2.506,2.074-2.6-.358-.113-2.937-.095-5.88-.223-8.82q-.256-5.852-.538-11.7a273.591,273.591,0,0,0-15.515-79.376,185.076,185.076,0,0,0-13.474-29.74A207.373,207.373,0,0,0,80.916,64.173C75.155,56.792,69.164,49.583,62.1,43.33A144.678,144.678,0,0,0,43.6,29.722C35.369,24.5,27.157,19.4,18.245,15.391c-4.633-2.084-9.353-3.95-14.021-5.95-.84-.36-1.741-.709-2.549-1.126-2.7-1.39-1.808-3.483.34-4.939" transform="translate(289.341 77.551) rotate(-87)" fill="#c1dee2" opacity="0.3"/>
  </g>
</svg>
