<svg id="Layer_2" data-name="Layer 2" xmlns="http://www.w3.org/2000/svg" width="180.046" height="125.691" viewBox="0 0 180.046 125.691">
  <g id="Layer_1" data-name="Layer 1" transform="translate(0)">
    <path id="Path_1131" data-name="Path 1131" d="M108.023,128.22S10.18,145.972,5.227,150.512s-6.192,11.56-4.55,19.816,5.79,9.908,15.688,9.5,39.632,7.02,48.3,12.8,85.871-22.3,91.242-26.423.824-21.88-1.24-26.008S108.023,128.22,108.023,128.22Z" transform="translate(0.006 -84.55)" fill="#fbb03b"/>
    <path id="Path_1132" data-name="Path 1132" d="M201.124,213.511l-13.055,6.318-1.648,16.206a21.3,21.3,0,0,1,1.849,1.093c8.668,5.79,85.868-22.3,91.235-26.423,2.789-2.142,2.9-7.967,2.078-13.644a32.832,32.832,0,0,0-3.876-1.345C276.375,195.041,201.124,213.511,201.124,213.511Z" transform="translate(-122.924 -129.044)" fill="#cf9131" opacity="0.59"/>
    <path id="Path_1133" data-name="Path 1133" d="M84.1,225.1c-4.026-11.144-15.483-10.218-37.156-17.336-21.015-6.907-42.9-5.661-44.2-5.579C-.073,206.573-.6,212.4.717,219.008c1.652,8.259,5.45,8.832,15.283,10.1,9.479,1.223,17.759,2.411,26.056,4.6,4.6,1.219,9.431,2.173,13.859,3.937,7.132,2.844,10.116,6.417,17.905,3.014C79.8,238.041,86.547,231.876,84.1,225.1Z" transform="translate(-0.017 -133.23)" fill="#f7931e"/>
    <path id="Path_1134" data-name="Path 1134" d="M79.3,235.658c-49.727-7.694-52.571-8.777-53-10.47-.484-1.138-2.585-4.452-2.677-7.551a4.873,4.873,0,0,1,1.679-4c2.827-2.428,7.834-1.655,21.975,1.979q5.855,1.526,11.645,3.246c7.725,2.3,15.392,4.714,22.983,7.558,4.864,1.873,9.833,3.178,10.044,8.348.136,5.92-6.4,11.863-10.266,10.722-3-.7-7.125-2.108-10.3-3.168-12.626-4.162-24.925-8.638-34.23-10.092h-.024a.94.94,0,1,1,.2-1.87c8.825.507,26.243,6.168,35.054,8.971,3.191,1.022,9.326,3.065,10.736,2.875,2.51-.572,5.545-4.394,5.45-7.323-.085-1.7-1.1-2.309-2.48-3-8.035-3.852-29.448-10.129-39.717-12.759-10.616-2.7-18.2-4.428-19.029-2.309-.647,1.676,1.546,5.283,2.4,7.309a1.591,1.591,0,0,0-.528-.817c-.068-.058-.313-.235-.208-.157,5.361,1.812,45.252,8.328,50.8,9.227h0A1.662,1.662,0,0,1,79.3,235.658Z" transform="translate(-15.57 -139.951)" fill="#c97819"/>
    <path id="Path_1135" data-name="Path 1135" d="M305.779,190.488c-5.433-5.766-4.547-29.158-10.092-30.047s-35.129,7.984-43.681,15.524c-15.8,13.917-37.476,11.873-37.476,11.873s8.58,1.468,12.418,11.863c4.087,11.032,8.515,21.117,24.387,25.385,22.905-7.129,43.9-16.907,62.128-32.139C309.921,192.606,307.09,191.881,305.779,190.488Z" transform="translate(-141.46 -105.755)" fill="#fbb03b"/>
    <path id="Path_1136" data-name="Path 1136" d="M115.128,251.9c-16.117-4.455-19.315-11.178-25.371-25.545-3.689-9.169-10.375-10.746-20.017-13.249C49.9,207.869,35,201.2,7.97,201.527c25.327-2.415,45.7,5.225,53.538,7.367,5.79,1.621,11.686,2.824,17.49,4.915l-.109-.034c5.211,1.4,9.99,5.5,12.456,11.955,2.027,5.014,4.309,13.753,11.829,19.993A35.214,35.214,0,0,0,115.128,251.9Z" transform="translate(-5.253 -132.581)" fill="#f7cd9c"/>
    <path id="Path_1137" data-name="Path 1137" d="M87.25,163.548s16.965.341,20.957,2.33,35.255,12.97,37.251,16.3,1,11.642,4.326,12.64c1.9.569,19.727-16.621,36.587-28.855A128.3,128.3,0,0,1,212.126,151.7l-34.06-4.768Z" transform="translate(-57.531 -96.887)" fill="#f7931e"/>
    <path id="Path_1138" data-name="Path 1138" d="M77.568,83.341s-60.285,8.876-64.2,12.176-4.567,20.548-2.3,24.264,36.147-2.8,42.547-1.144,42.108,18.978,47.268,18.978,15.9-10.722,31.376-18.774,23.089-11.025,27.837-11.025.235-23.859-9.877-26.747S77.568,83.341,77.568,83.341Z" transform="translate(-6.443 -52.879)" fill="#2e3192"/>
    <path id="Path_1139" data-name="Path 1139" d="M39.871,11.473c-5.865,4.148-6.618,22.088-1.652,28.692s22.708.2,36.124,3.3,26.836,2.476,30.136.824S128.62,30.464,138.95,30.464s27.248-3.3,27.248-3.3,1.24-14.864-.62-19.414S107.336-.738,97.047.121C54.305,3.687,51.986,2.913,39.871,11.473Z" transform="translate(-23.033 -0.002)" fill="#e75f98"/>
    <path id="Path_1140" data-name="Path 1140" d="M41.016,53.8c4.956,6.6,22.708.2,36.124,3.3s26.836,2.476,30.136.824S131.417,44.1,141.747,44.1s27.667-2.217,27.667-2.217.831-15.95-1.039-20.49a1.7,1.7,0,0,0-.739-.712c-5.821,1.247-57.36,12.261-62.424,11.86,0,0-25.885-8.515-52.193-8.1A13.181,13.181,0,0,0,40.277,35.288C39.051,42,38.318,50.2,41.016,53.8Z" transform="translate(-25.83 -13.637)" fill="#bf1d5f"/>
    <path id="Path_1141" data-name="Path 1141" d="M52.855,31.7A13.181,13.181,0,0,0,40.113,42.546c-1.049,5.749-1.877,12.6-.341,16.723a7.183,7.183,0,0,0,1.1,1.788c4.956,6.6,22.708.2,36.124,3.3,11.42,2.633,22.84,2.578,28.024,1.485,4.223-3.961,4.285-7,3.937-12.217-.443-6.652-3.89-13.832-3.89-13.832S79.166,31.29,52.855,31.7Z" transform="translate(-25.666 -20.896)" fill="#ad1a56"/>
    <path id="Path_1142" data-name="Path 1142" d="M103.648,79.151a1.332,1.332,0,0,1-.841-.3c-2.142-1.744-17.03-1.27-27.908-.92-17.711.565-22.319.453-23.406-1.448-1.519-2.66-2.044-9.687-.443-14.424.865-2.537,2.238-4.213,4.087-4.98C60.7,54.761,96.741,59.3,99.8,61.168c1.676,1.022,2.384,3.784,1.7,6.717-.657,2.851-2.762,6.025-6.7,6.39-6.086.548-36.6-3.5-37.9-3.682a1.329,1.329,0,1,1,.341-2.636c.313.041,31.519,4.189,37.285,3.651,3.178-.293,4.135-3.406,4.353-4.339.446-1.928.017-3.535-.487-3.842-2.963-1.587-37.622-5.817-42.248-3.89-1.107.46-1.975,1.6-2.582,3.382-1.444,4.23-.78,10.191.15,12.088,1.832.879,12.493.538,21.093.266,16.652-.531,26.958-.681,29.676,1.516a1.332,1.332,0,0,1-.841,2.364Z" transform="translate(-33.017 -37.214)" fill="#99174c"/>
    <path id="Path_1143" data-name="Path 1143" d="M150.111,82.77h0c-22.442,5.075-37.466,11.3-46.57,15.964A45.613,45.613,0,0,1,76.6,103.386c-11.114-1.5-24.863-3.26-29.744-3.433-5.286-.187-24.227.589-34.288-1.955-3.137,4.506-3.93,19.908-1.7,23.576s35.926-2.83,42.54-1.257l.089.02c6.131,1.587,40.5,18.2,46.856,18.961,5.017.61,15.848-10.467,31.788-18.757,6.427-3.341,19.152-9.9,26.284-10.817,1.829-.232,3.61.681,3.641-4.234C162.12,98.175,157.389,84.851,150.111,82.77Z" transform="translate(-6.326 -54.58)" fill="#0082e0"/>
    <path id="Path_1144" data-name="Path 1144" d="M308.094,82.77c-22.442,5.075-37.466,11.3-46.57,15.964a46.321,46.321,0,0,1-9.159,3.529c-1.771,5.708-8.733,31.178,6.076,37.053,5.058.46,16.093-9.721,31.934-17.956,6.427-3.341,18.91-10.715,26.042-11.628,1.829-.232,3.61.681,3.641-4.234C320.1,98.175,315.373,84.851,308.094,82.77Z" transform="translate(-164.31 -54.58)" fill="#0071c2"/>
    <path id="Path_1145" data-name="Path 1145" d="M249.847,140c-1.921,14.346-4.676,29.884,5.3,36.716C242.831,173.338,243.437,152.875,249.847,140Z" transform="translate(-161.791 -92.317)" fill="#9bcdf2"/>
    <path id="Path_1146" data-name="Path 1146" d="M323.326,98.685c-6.737-4.162-36.784,12.013-41.7,15.79-7.343,5.667-4.353,27.466,3.386,21.335,10.429-8.3,42.118-15.691,39.771-25.419-.593-2.469-3.212-3.9-5.4-4.183-3.457-.456-18.082,7.459-23.058,10.218a1.237,1.237,0,1,0,1.2,2.163c9.305-5.18,19.646-10.238,21.536-9.932,1.362.181,3,1.049,3.307,2.306,1.536,6.369-29.972,15.8-38.906,22.9-3.873,3.082-5.388-13.508-.341-17.4,6.785-5.218,34.686-18.733,38.917-15.623l.436.2c4.2,1.052,4.7,13.784,4.295,20.262v1.042c.93-.4,1.846-.763,2.725-1.087C330.23,114.472,329.365,100.729,323.326,98.685Z" transform="translate(-182.931 -64.626)" fill="#0064ab"/>
    <path id="Path_1147" data-name="Path 1147" d="M211.77,29.718s5.487.831,7.813,2.493,13.964,20.565,13.964,20.565l35.6-6.761L294.2,39.473s-8.937-16.9-12.755-19.482S211.77,29.718,211.77,29.718Z" transform="translate(-139.64 -12.948)" fill="#e75f98"/>
    <path id="Path_1148" data-name="Path 1148" d="M38.082,55.73c-3.406-8.685-1.843-22.537,6.233-27.081,8.907-4.867,40.555-1.083,50.408,1.809,10.558,3.042,11.318,6.846,16.008,14.414,2.432,4.087,4.877,8.14,7.173,12.306C104.318,40.723,104.961,38.6,100.118,36.06,94.212,33.206,86.961,32.481,80,31.684c-6.941-.869-28.416-3.014-34.247-.286C38.668,34.742,36.536,47.661,38.082,55.73Z" transform="translate(-23.993 -17.349)" fill="#ffa1c7"/>
    <path id="Path_1149" data-name="Path 1149" d="M324.206,49.112a23.878,23.878,0,0,0,3.948,2.432c.415.191.841-.477.494-.773a23.838,23.838,0,0,0-3.873-2.551.529.529,0,0,0-.569.892Z" transform="translate(-213.619 -31.742)" fill="#ed1e79"/>
    <path id="Path_1150" data-name="Path 1150" d="M340.268,34.636a23.809,23.809,0,0,0,3.437,3.113c.375.266.916-.313.627-.681a23.675,23.675,0,0,0-3.341-3.215.528.528,0,0,0-.722.77Z" transform="translate(-224.269 -22.236)" fill="#ed1e79"/>
    <path id="Path_1151" data-name="Path 1151" d="M355.875,20.708a23.783,23.783,0,0,0,3.433,3.113c.375.262.916-.313.627-.681a23.657,23.657,0,0,0-3.338-3.215.529.529,0,1,0-.722.773Z" transform="translate(-234.553 -13.045)" fill="#ed1e79"/>
    <path id="Path_1152" data-name="Path 1152" d="M287.755,31.938a23.808,23.808,0,0,0,3.437,3.113c.375.262.916-.313.627-.681a23.871,23.871,0,0,0-3.341-3.215.529.529,0,1,0-.722.773Z" transform="translate(-189.634 -20.45)" fill="#ed1e79"/>
    <path id="Path_1153" data-name="Path 1153" d="M304.279,24.325a23.787,23.787,0,0,0,4.319,1.683c.443.112.742-.62.341-.848a23.916,23.916,0,0,0-4.271-1.815.531.531,0,0,0-.4.981Z" transform="translate(-200.442 -15.378)" fill="#ed1e79"/>
    <path id="Path_1154" data-name="Path 1154" d="M244.369,29.9a23.651,23.651,0,0,0,4.319,1.686.478.478,0,0,0,.341-.851,23.794,23.794,0,0,0-4.247-1.815.532.532,0,0,0-.412.981Z" transform="translate(-160.921 -19.043)" fill="#ed1e79"/>
    <path id="Path_1155" data-name="Path 1155" d="M260.507,12.092a23.666,23.666,0,0,0,4.322,1.683c.443.116.742-.62.341-.848a23.585,23.585,0,0,0-4.268-1.812.528.528,0,1,0-.4.978Z" transform="translate(-171.558 -7.303)" fill="#ed1e79"/>
    <path id="Path_1156" data-name="Path 1156" d="M228.037,13.8a23.921,23.921,0,0,0,4.322,1.683c.443.112.743-.62.341-.848a23.585,23.585,0,0,0-4.268-1.812.528.528,0,1,0-.4.978Z" transform="translate(-150.147 -8.431)" fill="#ed1e79"/>
    <path id="Path_1157" data-name="Path 1157" d="M188.181,7.976a30.218,30.218,0,0,0,4.6-.562A.361.361,0,0,0,192.7,6.7a30.517,30.517,0,0,0-4.608.443c-.681.1-.589.875.092.828Z" transform="translate(-123.721 -4.415)" fill="#ed1e79"/>
    <path id="Path_1158" data-name="Path 1158" d="M192.917,19.856a30.217,30.217,0,0,0,4.6-.562.361.361,0,1,0-.078-.719,30.518,30.518,0,0,0-4.615.453C192.144,19.131,192.236,19.9,192.917,19.856Z" transform="translate(-126.84 -12.248)" fill="#ed1e79"/>
    <path id="Path_1159" data-name="Path 1159" d="M139.184,14.976a30.218,30.218,0,0,0,4.6-.562.361.361,0,0,0-.078-.719,30.517,30.517,0,0,0-4.612.443c-.681.1-.589.875.092.828Z" transform="translate(-91.41 -9.03)" fill="#ed1e79"/>
    <path id="Path_1160" data-name="Path 1160" d="M220.322,33.866a30.459,30.459,0,0,0,4.595.623.361.361,0,1,0,.106-.715,30.806,30.806,0,0,0-4.578-.732C219.764,32.974,219.655,33.74,220.322,33.866Z" transform="translate(-144.984 -21.786)" fill="#ed1e79"/>
    <path id="Path_1161" data-name="Path 1161" d="M261.089,56.065a17.785,17.785,0,0,0,2.65,2.384c.289.2.715-.255.49-.531a17.819,17.819,0,0,0-2.582-2.463.416.416,0,1,0-.565.61Z" transform="translate(-172.069 -36.495)" fill="#ed1e79"/>
    <path id="Path_1162" data-name="Path 1162" d="M283.563,64.385a17.785,17.785,0,0,0,2.65,2.384c.289.2.715-.255.49-.531a17.823,17.823,0,0,0-2.575-2.452.416.416,0,1,0-.565.61Z" transform="translate(-186.892 -41.988)" fill="#ed1e79"/>
    <path id="Path_1163" data-name="Path 1163" d="M275.422,80.958a17.773,17.773,0,0,0,2.65,2.384c.289.2.715-.255.494-.528a18.05,18.05,0,0,0-2.578-2.469.416.416,0,0,0-.565.61Z" transform="translate(-181.525 -52.908)" fill="#ed1e79"/>
    <path id="Path_1164" data-name="Path 1164" d="M314.652,89.1a17.789,17.789,0,0,0,2.65,2.384c.289.2.712-.255.49-.531a18,18,0,0,0-2.575-2.466.416.416,0,0,0-.565.61Z" transform="translate(-207.393 -58.275)" fill="#ed1e79"/>
    <path id="Path_1165" data-name="Path 1165" d="M320.342,70.868A17.812,17.812,0,0,0,323,73.253c.289.2.712-.255.491-.528a17.867,17.867,0,0,0-2.578-2.469.416.416,0,0,0-.565.61Z" transform="translate(-211.145 -46.254)" fill="#ed1e79"/>
    <path id="Path_1166" data-name="Path 1166" d="M370.688,59.533a17.793,17.793,0,0,0,2.653,2.384c.289.2.712-.252.49-.528a18,18,0,0,0-2.575-2.466.419.419,0,0,0-.569.61Z" transform="translate(-244.362 -38.798)" fill="#ed1e79"/>
    <path id="Path_1167" data-name="Path 1167" d="M355.822,79.378a17.794,17.794,0,0,0,2.653,2.384c.29.2.712-.255.49-.528a17.846,17.846,0,0,0-2.578-2.449.416.416,0,1,0-.565.61Z" transform="translate(-234.541 -51.879)" fill="#ed1e79"/>
    <path id="Path_1168" data-name="Path 1168" d="M389.682,50.848a17.6,17.6,0,0,0,2.65,2.384c.29.2.715-.255.49-.528a17.662,17.662,0,0,0-2.575-2.469.416.416,0,1,0-.565.61Z" transform="translate(-256.868 -33.053)" fill="#ed1e79"/>
    <path id="Path_1169" data-name="Path 1169" d="M333.069,14.075a17.767,17.767,0,0,0,2.65,2.384c.289.2.715-.252.49-.528a17.825,17.825,0,0,0-2.561-2.466.416.416,0,0,0-.565.61Z" transform="translate(-219.546 -8.807)" fill="#ed1e79"/>
    <path id="Path_1170" data-name="Path 1170" d="M395.862,35.725a17.791,17.791,0,0,0,2.653,2.384c.289.2.712-.255.49-.528a18.024,18.024,0,0,0-2.578-2.466.416.416,0,1,0-.565.61Z" transform="translate(-260.943 -23.083)" fill="#ed1e79"/>
    <path id="Path_1171" data-name="Path 1171" d="M350.99,249.76s-60.538,16.628-59.649,19.955,4.656,8.648,13.746,9.312S366.511,250.646,350.99,249.76Z" transform="translate(-192.103 -164.694)" fill="#fbe0b5" opacity="0.19"/>
    <path id="Path_1172" data-name="Path 1172" d="M340.886,339.683c-.4,2.916,1.291,7.585,3.866,9.169a.235.235,0,0,0,.341-.245,37.787,37.787,0,0,0-1.822-3.873c-.719-1.679-.92-3.43-1.5-5.126a.453.453,0,0,0-.892.075Z" transform="translate(-224.741 -223.711)" fill="#fbb03b"/>
    <path id="Path_1173" data-name="Path 1173" d="M329.564,342.39c-.722,1.335-.211,3.3.157,4.7s.834,3.379,2.108,4.257a.279.279,0,0,0,.422-.225c-.044-1.475-1-2.847-1.362-4.288s-.194-3.157-.892-4.428a.255.255,0,0,0-.439-.017Z" transform="translate(-217.073 -225.699)" fill="#fbb03b"/>
    <path id="Path_1174" data-name="Path 1174" d="M352.316,335.7c.14,1.345,1.151,2.687,1.812,3.859a9.776,9.776,0,0,0,2.129,3.14c.31.242.63-.109.593-.419-.16-1.362-1.155-2.681-1.829-3.859a9.658,9.658,0,0,0-2.146-3.12C352.578,335.077,352.285,335.4,352.316,335.7Z" transform="translate(-232.315 -221.049)" fill="#fbb03b"/>
    <path id="Path_1175" data-name="Path 1175" d="M363.927,331.508c3.127,5.245,2.752,6.308,4.06,7.534a.443.443,0,0,0,.763-.276c.252-2.132-2.52-6.25-3.811-7.98-.433-.579-1.379.106-1.022.722Z" transform="translate(-239.914 -217.978)" fill="#fbb03b"/>
    <path id="Path_1176" data-name="Path 1176" d="M379.639,325.337c1.461,2.289,2.34,4.874,3.774,7.152.177.286.7.242.7-.157-.044-2.8-1.819-5.558-3.59-7.619-.4-.456-1.216.1-.882.627Z" transform="translate(-250.282 -214.007)" fill="#fbb03b"/>
    <path id="Path_1177" data-name="Path 1177" d="M393.594,319.522c3.324,5.235,2.091,3.362,4,7.929a.245.245,0,0,0,.46-.1,11.2,11.2,0,0,0-3.764-8.317c-.341-.29-.974.048-.681.49Z" transform="translate(-259.493 -210.3)" fill="#fbb03b"/>
    <path id="Path_1178" data-name="Path 1178" d="M408.2,313.32a11.1,11.1,0,0,0,1.754,3.917,9.121,9.121,0,0,0,2.2,3.11c.31.238.637-.123.61-.429A10.453,10.453,0,0,0,411.016,316a9.76,9.76,0,0,0-2.19-3.127C408.51,312.632,408.166,313.006,408.2,313.32Z" transform="translate(-269.163 -206.261)" fill="#fbb03b"/>
    <path id="Path_1179" data-name="Path 1179" d="M423.262,306.429a50.841,50.841,0,0,1,2.956,6.063c.681,1.362,1.849-2.888-2.149-6.635-.381-.358-1.138.078-.807.572Z" transform="translate(-279.045 -201.597)" fill="#fbb03b"/>
    <path id="Path_1180" data-name="Path 1180" d="M434.739,299.329c2.418,6.178,5.484,7.953,5.041,6.577s-3.951-6.618-4.292-7.108S434.565,298.886,434.739,299.329Z" transform="translate(-286.646 -196.906)" fill="#fbb03b"/>
    <path id="Path_1181" data-name="Path 1181" d="M447.3,291.47a21.175,21.175,0,0,0,2.173,3.471,9.761,9.761,0,0,0,2.384,2.681.341.341,0,0,0,.49-.341c-.61-2.333-2.674-4.584-4.186-6.417-.4-.487-1.093.089-.862.61Z" transform="translate(-294.919 -191.676)" fill="#fbb03b"/>
    <path id="Path_1182" data-name="Path 1182" d="M456.98,285.079c1.659,1.362,3.021,3.137,4.745,4.428.341.262.753-.167.61-.525a10.238,10.238,0,0,0-4.785-4.741.511.511,0,0,0-.569.848Z" transform="translate(-301.193 -187.38)" fill="#fbb03b"/>
    <path id="Path_1183" data-name="Path 1183" d="M471.118,275.853c1.26,1.185,2.5,2.384,3.685,3.644.967,1.022,1.778,2.248,3.065,2.864a.419.419,0,0,0,.552-.463,9.167,9.167,0,0,0-2.7-3.576,22.141,22.141,0,0,0-3.975-3.147c-.416-.255-1.022.3-.62.681Z" transform="translate(-310.572 -181.41)" fill="#fbb03b"/>
    <path id="Path_1184" data-name="Path 1184" d="M483.584,270.106a26.555,26.555,0,0,0,5.824,4.574c.436.218,1.022-.341.681-.763a27,27,0,0,0-5.7-4.707c-.62-.426-1.393.341-.807.9Z" transform="translate(-318.733 -177.438)" fill="#fbb03b"/>
    <path id="Path_1185" data-name="Path 1185" d="M492.7,263.336c6.029,4.315,10,3.178,8.406,2.207-1.444-.879-.62-.15-7.834-3.12-.541-.221-1.1.542-.576.913Z" transform="translate(-324.746 -173.018)" fill="#fbb03b"/>
    <path id="Path_1186" data-name="Path 1186" d="M501.249,257.018c6.812,2.936,10.446.984,8.685.375-1.6-.555-.637-.017-8.314-1.39-.579-.106-.961.76-.371,1.022Z" transform="translate(-330.329 -168.804)" fill="#fbb03b"/>
  </g>
</svg>
