<svg xmlns="http://www.w3.org/2000/svg" width="63" height="214.299" viewBox="0 0 63 214.299">
  <g id="kurti" transform="translate(-118.708 -61.789)">
    <path id="Path_832" data-name="Path 832" d="M155.941,75.544c-1.284,9.461-3.649,15.983-.068,18.669,3.649,2.619,2.94,4.984,2.94,4.984s-23.332,3.717-23.028,2.686c.321-.963-5.052-12.4-5.305-17.081-.186-4.663.76-12.6,2.23-14.006,9.613-8.819,24.9-7.991,23.231,4.748Z" transform="translate(8.101 2.179)" fill="#2a2523" fill-rule="evenodd"/>
    <path id="Path_833" data-name="Path 833" d="M120.52,219.17s2.433-40.6,3.193-55.062c.828-14.513,2.551-75.2,2.551-75.2l6.268-1.537-.321,132.307c.017,0-8.16-2.416-11.692-.507Z" transform="translate(1.249 17.639)" fill="#c71b32" fill-rule="evenodd"/>
    <path id="Path_834" data-name="Path 834" d="M135.522,112.97c5.44,22.386-.71,27.81-6.2,48.219-4.291,15.983,4.224,33.385,4.731,42.914.574,9.461-5.44,19.125-1.977,31.07,3.447,11.894,5.119,20.021,2.044,23.468-3.007,3.514-3.649,5.947-2.23,6.775,1.335.828,3.514-.186,5.947.186,2.365.321,3.835-1.656,4.224-3.649.321-1.926,1.791-3.126,1.926-4.984.186-1.926-.828-2.179-1.858-5.626-1.031-3.514.321-13.364,1.284-17.385,1.031-4.089,3.075-13.618,2.044-18.8-1.031-5.119,2.433-9.968,1.977-19.058-.389-9.073,2.754-24.8,2.754-24.8s3.126,15.73,2.754,24.8c-.439,9.073,3.007,13.939,1.977,19.058-1.031,5.187,1.031,14.7,2.044,18.8.963,4.021,2.3,13.871,1.284,17.385-1.031,3.447-2.044,3.717-1.858,5.626.135,1.858,1.605,3.075,1.926,4.984.321,1.977,1.858,3.97,4.224,3.649,2.433-.389,4.612.642,5.947-.186,1.4-.828.76-3.261-2.23-6.775-3.075-3.447-1.4-11.573,2.044-23.468,3.447-11.962-2.551-21.609-2.044-31.07.574-9.529,9.073-26.914,4.8-42.914-5.491-20.393-11.641-25.833-6.2-48.219.389-1.537,1.216-4.866,2.365-1.284,1.656,5.44,3.514,15.476,3.582,20.967,0,7.67,4.545,27.624,4.8,29.161.253,1.47-1.284,3.447-1.284,5.052a46.221,46.221,0,0,1-.76,6.657c-.389,2.551.642,2.872,1.4,2.754.76-.135.389-5.373.389-5.373a12.7,12.7,0,0,1,1.081,4.477c.135,2.433-2.3,6.589.963,4.731s5.694-10.864,3.447-14.969c-2.23-4.089-1.081-12.334-1.4-22.572-.253-10.239-3.4-12.722-3.582-30.749-.186-17.081-5.491-20.072-12.469-22-8.127-2.23-8.38-3.328-8.127-12.976-1.47,0-3.261-.068-5.052-.068s-3.582.068-5.052.068c.253,9.664,0,10.745-8.127,12.976-6.978,1.926-12.283,4.917-12.469,22-.186,18.027-3.328,20.528-3.582,30.749-.321,10.239.828,18.483-1.4,22.572s.186,13.111,3.447,14.969.828-2.3.963-4.731a13.143,13.143,0,0,1,1.081-4.477s-.389,5.238.389,5.373c.76.135,1.791-.186,1.4-2.754a45.965,45.965,0,0,1-.76-6.657c0-1.605-1.537-3.582-1.284-5.052.253-1.537,4.8-21.491,4.8-29.161.068-5.491,1.926-15.544,3.582-20.967,1.115-3.565,1.943-.253,2.332,1.284Z" transform="translate(0 10.337)" fill="#fcd5a5" fill-rule="evenodd"/>
    <path id="Path_835" data-name="Path 835" d="M144.443,81.19c-.068-1.216,0-2.619,0-4.342-1.47,0-3.261-.068-5.052-.068s-3.582.068-5.052.068c0,1.723.068,3.126,0,4.342a7.795,7.795,0,0,0,10.1,0Z" transform="translate(10.779 10.337)" fill="#f3c389" fill-rule="evenodd"/>
    <path id="Path_836" data-name="Path 836" d="M151.652,77.084c0,7.873-4.545,14.192-10.171,14.192S131.31,84.94,131.31,77.084c0-17.081,20.342-18.027,20.342,0Z" transform="translate(8.69 1.467)" fill="#fcd5a5" fill-rule="evenodd"/>
    <path id="Path_837" data-name="Path 837" d="M134.49,73.954c0,1.656-1.031,3.075-2.23,3.075s-2.23-1.4-2.23-3.075c-.017-3.768,4.46-3.97,4.46,0Z" transform="translate(7.807 6.387)" fill="#fcd5a5" fill-rule="evenodd"/>
    <path id="Path_838" data-name="Path 838" d="M146.45,73.954c0,1.656-1.031,3.075-2.23,3.075-1.216,0-2.23-1.4-2.23-3.075-.017-3.768,4.46-3.97,4.46,0Z" transform="translate(16.054 6.387)" fill="#fcd5a5" fill-rule="evenodd"/>
    <path id="Path_839" data-name="Path 839" d="M125.951,149.75c.574,19.5-.76,35.041.642,52.443a15.493,15.493,0,0,0,11.573-.135s-.439-11.387.76-16.439c3.447-14.006.574-20.916,3.649-31.459Zm38.488,0c-.574,19.5.76,35.041-.642,52.443a15.493,15.493,0,0,1-11.573-.135s.439-11.387-.76-16.439c-3.447-14.006-.574-20.916-3.649-31.459Z" transform="translate(4.976 60.652)" fill="#ef8162" fill-rule="evenodd"/>
    <path id="Path_840" data-name="Path 840" d="M130.908,109.253l-1.216,3.9c-2.872-1.284-6.91-.439-7.992-3.261,1.47-12.655-.507-22.961,15.02-25.765l.186.068c2.044,2.619,5.812,4.089,9.782,4.342v.068c0,2.5.642,4.477,1.4,4.477s1.4-1.977,1.4-4.477V88.54c4.021-.253,7.806-1.723,9.782-4.342l.186-.068c15.544,2.822,13.55,13.111,15.02,25.765-1.081,2.821-5.119,1.977-7.991,3.261l-1.183-3.9c-1.605,9.343-1.537,20.021,2.5,36.511,6.082,24.616-1.656,38.437,1.858,52.747-11,4.984-32.1,4.984-43.1,0,3.514-14.327-4.224-28.131,1.791-52.747,4.089-16.507,4.139-27.185,2.551-36.511Z" transform="translate(2.063 15.405)" fill="#f6af95" fill-rule="evenodd"/>
    <path id="Path_841" data-name="Path 841" d="M128.24,98.88c4.089,4.663,9.343.963,15.341.963,6.015,0,11.185,3.717,15.341-.963-1.538,6.082-10.492,3.717-15.341,3.717s-13.8,2.365-15.341-3.717Z" transform="translate(6.573 25.575)" fill="#e99072" fill-rule="evenodd"/>
    <path id="Path_842" data-name="Path 842" d="M131.665,73.26a.591.591,0,0,0,.068.574c.439.71.574,1.47-.321,1.723,0,0,.642-.642.135-1.081a1.118,1.118,0,0,1-.389-1.149c0-.253.186-1.216-.828-.253a.924.924,0,0,1,.389-.642c.693-.642,1.2-.068.946.828Z" transform="translate(8.014 7.15)" fill="#f3c389" fill-rule="evenodd"/>
    <path id="Path_843" data-name="Path 843" d="M143.707,73.26a.591.591,0,0,1-.068.574c-.439.71-.574,1.47.321,1.723,0,0-.642-.642-.135-1.081a1.118,1.118,0,0,0,.389-1.149c0-.253-.186-1.216.828-.253a1.155,1.155,0,0,0-.389-.642c-.693-.642-1.216-.068-.946.828Z" transform="translate(16.955 7.15)" fill="#f3c389" fill-rule="evenodd"/>
    <path id="Path_844" data-name="Path 844" d="M125.09,90.583c2.433-4.224,7.924-5.88,13.55-6.843l1.284,144.455s-.828,2.754-7.738,1.4c-6.843-1.284-10.036-.321-10.036-.321,1.537-14.885,6.268-86.757,2.94-138.694Z" transform="translate(2.373 15.136)" fill="#e40646" fill-rule="evenodd"/>
    <path id="Path_845" data-name="Path 845" d="M141.3,69.13c3.193,2.754.389,7.6,3.007,13.82-.76-4.731,1.537-10.171,1.537-12.4Z" transform="translate(15.578 5.062)" fill="#2a2523" fill-rule="evenodd"/>
    <path id="Path_846" data-name="Path 846" d="M143.506,61.791c-8.633-.135-14.581,11.32-15.088,22.5-.507,10.61,3.126,22.826,13.685,20.46-8.127-1.656-8.566-24.87-3.193-28.2,2.179-1.335,3.835-3.835,4.612-7.552,2.044,9.918,11.827,7.485,12.215,12.148,5.221-5.863-1.808-19.548-12.232-19.362Z" transform="translate(6.664 0)" fill="#2a2523" fill-rule="evenodd"/>
    <rect id="Rectangle_1573" data-name="Rectangle 1573" width="0.253" height="1.335" transform="translate(160.527 83.214)" fill="#fff286"/>
    <path id="Path_847" data-name="Path 847" d="M144.347,79.543a1.947,1.947,0,0,0,1.926-1.977,1.894,1.894,0,0,0-1.926-1.926,1.936,1.936,0,0,0-1.977,1.926,1.969,1.969,0,0,0,1.977,1.977Zm0-1.014a1.306,1.306,0,0,0,1.335-1.335,1.364,1.364,0,0,0-1.335-1.4,1.421,1.421,0,0,0-1.4,1.4,1.343,1.343,0,0,0,1.4,1.335Z" transform="translate(16.316 9.551)" fill="#fc0" fill-rule="evenodd"/>
    <path id="Path_848" data-name="Path 848" d="M144.664,80.63a2.72,2.72,0,0,0,0-5.44,2.72,2.72,0,1,0,0,5.44Zm0-.2a2.146,2.146,0,1,0-2.179-2.179,2.15,2.15,0,0,0,2.179,2.179Z" transform="translate(15.999 9.24)" fill="#fc0" fill-rule="evenodd"/>
    <path id="Path_849" data-name="Path 849" d="M144.009,78.045a1.2,1.2,0,0,0,1.149-1.216,1.149,1.149,0,1,0-2.3,0,1.187,1.187,0,0,0,1.149,1.216Z" transform="translate(16.653 9.578)" fill="#fc0" fill-rule="evenodd"/>
  </g>
</svg>
