<svg xmlns="http://www.w3.org/2000/svg" width="106.307" height="208.135" viewBox="0 0 106.307 208.135">
  <g id="Saree" transform="translate(0 0.007)">
    <g id="Layer_1" data-name="Layer 1" transform="translate(0 -0.007)">
      <path id="Path_811" data-name="Path 811" d="M127.7,42.4s2.616-4.815,2.143-7.511-1.252-8.4-1.517-9.293-2.769-2.038-3.21-3.684.69-5.056,3.9-8.9,7.873-5.931,12.27-4.285,8.29,7.584,7.56,12.92-1.669,9.157.088,13.177a88.76,88.76,0,0,0,4.013,7.921s-11.693,3.082-12.086,3.146S127.7,42.4,127.7,42.4Z" transform="translate(-93.114 -8.163)" fill="#14120f"/>
      <path id="Path_812" data-name="Path 812" d="M177.725,206.088c-4.759-2.913-7.68-16.427-11.059-36.113s-11.516-63.117-12.134-68.494,2.151-13.514,2.921-19.661-3.6-27.614-4.992-32.67-4.526-4.911-6.837-5.192-6.693-1.605-8.715-3.716-2.135-7.311-2.135-7.311a4.365,4.365,0,0,0,1.067-.562c.674-.449.449-2.03.618-2.7a2.1,2.1,0,0,0-.674-1.8,1.027,1.027,0,0,0-1.188-.225,11.508,11.508,0,0,0-3.651-6.589c-3.266-2.977-6.42-3.314-9.06-1.348s-2.191,5.12-2.135,6.131.281,1.605.506,4.013a15.455,15.455,0,0,0,1.966,5.794,6.749,6.749,0,0,0,2.7,2.929,4.117,4.117,0,0,1-.907,3.435c-1.348,1.517-6.524,2.3-10.433,3.09s-4.943,8.386-4.943,8.386C108.083,61.7,104.929,76.123,103.87,81s-6.556,19.958-7.929,23.7-4.47,6.918-5.353,8.892-1.14,3.346-2.207,5.618-3.122,3.659-3.122,4.013,1.067.457,2.135-.225,3.579-5.032,3.579-5.032-.457,4.422,0,4.574,1.445-3.884,1.605-4.815a6.845,6.845,0,0,1,1.3-2.223,4.919,4.919,0,0,1,.987,1.677c.08.61-.61,4.414-.53,4.871s.987.233,1.605-1.822,1.372-3.354,1.677-4.574,0-3.354.457-6.709,9.63-15.424,9.63-15.424c-5.224,13.819,1.685,23.5,3.531,34.564s1.228,23.947-1.533,43.3a165.7,165.7,0,0,1-9.983,36.4c2.608,7.985,11.668,8.137,12.9,7.832s3.21-2.921,4.3-2.408,2.3.586,4.606-1.356,3.379.714,6.3,2.608,13.819-2.608,13.819-2.608l.465,5.618s7.528-1.541,11.059-.1a12.6,12.6,0,0,0,11.059-.666c3.684-2,5.834-.457,11.363.457s15.665-1.38,15.97-3.964S182.484,209.009,177.725,206.088ZM116.879,75.874a14.445,14.445,0,0,1-1.9,4.269l-1.3,1.22s1.83-11.355,2.287-15.617c0,0,1.22,2.584,1.91,3.732l.682,1.14a36.226,36.226,0,0,0-1.677,5.256Zm16.54,65.95c.225-3.459,5.987-15.44,5.987-15.44l1.605,42.533S133.2,145.274,133.418,141.824Z" transform="translate(-85.26 -10.199)" fill="#e5a972"/>
      <path id="Path_813" data-name="Path 813" d="M142.647,69.738c.538-1.011-1.605-8.828-1.605-8.828s-15.914,5.834-22.093-9.63h0l-1.533.3c-3.876.8-4.943,8.386-4.943,8.386-.562,8.218-3.716,22.639-4.775,27.518-.449,2.046-1.677,5.9-3.058,9.959,0,0,4.7.136,6.556,3.025.209-.289.337-.449.337-.449-.08.209-.152.417-.225.634,1.766,3.033,5.754-4.751,5.754-5.3s10.834-11.917,11.4-12.84S142.1,70.757,142.647,69.738Zm-21.94,12.615a14.445,14.445,0,0,1-1.9,4.269l-1.3,1.22s1.83-11.355,2.287-15.617c0,0,1.22,2.584,1.91,3.732l.682,1.14a36.226,36.226,0,0,0-1.677,5.256Z" transform="translate(-89.087 -16.679)" fill="#ab1749"/>
      <path id="Path_814" data-name="Path 814" d="M138.012,68.66a68.7,68.7,0,0,1-11.075,5.457c-4.719,1.573-6.966-3.924-6.966-3.924a166.808,166.808,0,0,1-3,18.377,41.474,41.474,0,0,1-6.42,13.643,5.369,5.369,0,0,1,1.814,1.693c.209-.289.337-.449.337-.449-.08.209-.152.417-.225.634.57.971,1.364.8,2.183.169a24.2,24.2,0,0,0,3.33-4.815.288.288,0,0,1,0-.072c.217-.562,4.638-15.745,5.409-16.628s9.012-6.653,9.855-6.733S138.012,68.66,138.012,68.66ZM121.873,85.785a14.445,14.445,0,0,1-1.9,4.269l-1.3,1.22s1.83-11.355,2.287-15.617c0,0,1.22,2.584,1.91,3.732l.682,1.14a36.226,36.226,0,0,0-1.677,5.256Z" transform="translate(-90.255 -20.111)" fill="#af1648"/>
      <path id="Path_815" data-name="Path 815" d="M113.652,110.793c-1.878-3.635-6.42-4.638-8.25-4.9-.249.8-.514,1.557-.8,2.359,0,0,4.7.136,6.556,3.025.209-.289.337-.449.337-.449-.08.209-.152.417-.225.634.658,1.132,1.605.754,2.576-.185A1.19,1.19,0,0,0,113.652,110.793Z" transform="translate(-89.08 -27.464)" fill="#303031"/>
      <path id="Path_816" data-name="Path 816" d="M113.506,98.195a9.718,9.718,0,0,0-5.513-.867c-.209.8-.5,1.814-.8,2.937,6.484-1.043,7.608,4.622,7.608,4.622l1.886-.8A5.561,5.561,0,0,0,113.506,98.195Z" transform="translate(-89.591 -25.755)" fill="#303031"/>
      <path id="Path_817" data-name="Path 817" d="M135.216,65.1c-9.365,6.613-13.1,11.789-13.1,11.789a36.225,36.225,0,0,0-1.677,5.256,14.445,14.445,0,0,1-1.9,4.269l-1.3,1.22C115.5,89.585,111.8,99,111.8,99s-1.26,1.316-2.231,7.407c-1.356,10.433,3.675,18.714,5.208,27.927,1.846,11.075,1.228,23.947-1.533,43.3a165.7,165.7,0,0,1-9.983,36.4c2.608,7.985,11.668,8.137,12.9,7.832s3.21-2.921,4.3-2.408,2.3.586,4.606-1.356,3.379.714,6.3,2.608,13.819-2.608,13.819-2.608l.465,5.618s7.528-1.541,11.059-.1a12.6,12.6,0,0,0,11.059-.666c3.684-2,5.834-.457,11.363.457s15.665-1.38,15.97-3.964-9.06-4.173-13.819-7.094-7.68-16.427-11.059-36.113-11.516-63.117-12.134-68.494,2.151-13.514,2.921-19.661-3.6-27.6-4.992-32.654-4.526-4.911-6.837-5.192C147.454,52.918,144.581,58.464,135.216,65.1Zm9.357,110.056s-7.832-23.61-7.6-27.06,5.987-15.44,5.987-15.44Z" transform="translate(-88.815 -16.471)" fill="#ef9800"/>
      <path id="Path_818" data-name="Path 818" d="M157.528,172.5c-.618-3.122,1.228-27.221.8-28.048s-2.408-20.929-2.408-20.929-7.664-5.481-10.794-1.661l.843-.2c-1.011.5.626,19.557-1.886,29.171s-3.748,14.445-1.87,21.587,11.4,47.075,8.507,59.578l-.177.8c1.3-.473,2.159-.8,2.159-.8l.337,4.117c2.408-1.966,5.353-6.163,5.272-6.42-.136-.546,2.937-21.323,3.114-22.615S158.146,175.609,157.528,172.5Zm-13.041-10.521c.225-3.459,5.987-15.44,5.987-15.44l1.605,42.533S144.271,165.425,144.488,161.974Z" transform="translate(-96.329 -30.35)" fill="#ef9800" opacity="0.6"/>
      <g id="Group_16" data-name="Group 16" transform="translate(17.751 95.889)" opacity="0.7">
        <path id="Path_819" data-name="Path 819" d="M140.46,127.65l-.425.177s-.048.2-.144.562A4.078,4.078,0,0,1,140.46,127.65Z" transform="translate(-113.801 -127.65)" fill="#ef9800"/>
        <path id="Path_820" data-name="Path 820" d="M124.786,169.658c.473,8.908,13.41,48.552,13.41,48.552s-10.071-42.806-10.834-53.07c-.7-9.389,5.112-32.678,6.107-36.57-.8,1.1-2.592,3.844-6.829,10.657-6.966,11.235-9,33.015-10.288,50.253-1,13.442-6.573,35.808-8.972,45a13.466,13.466,0,0,0,6.829,2.841c1.6-5.971,2.825-42.469,2.825-42.469S118.27,225.4,118.992,236c.851-.7,1.7-1.34,2.279-1.075a4.14,4.14,0,0,0,.626.225c-.8-9.445-3.033-36-3.066-51.906,0-19.6,7.808-39.323,7.808-39.323s-4.366,16.853-4.438,31.474c-.048,11.235,3.836,43.207,5.658,57.548,1.228.337,2.359,1.958,4.317,3.21h0c-1.814-8.25-7.648-36.024-8.828-57.1-1.4-25.022,6.011-39.507,6.011-39.507S124.321,160.75,124.786,169.658Z" transform="translate(-107.38 -127.832)" fill="#ef9800"/>
      </g>
      <path id="Path_821" data-name="Path 821" d="M156.888,98.75s-7.415,1.605-7.808,4.2c0,0,1.388-3.025,1.926,6.34s1,32.951,1,32.951l1.605,42.533.61,42.942.465,5.618s7.527-1.541,11.059-.1c0,0-5.489-112.351-6.42-121.844S158.582,99.528,156.888,98.75Z" transform="translate(-97.864 -26.054)" fill="#c42359"/>
      <path id="Path_822" data-name="Path 822" d="M144.6,111.548c0-.449-.048-.859-.08-1.252l.08-.1v1a17.758,17.758,0,0,0-2.656.634,21.716,21.716,0,0,0-3.8,1.2c-5.425,5.369-17.19,17.912-21.5,29.5.313,1.2.586,2.408.8,3.659a77.343,77.343,0,0,1,.979,9.839s15.159-28.481,26.587-34.765h0C144.89,117.511,144.746,114.052,144.6,111.548Z" transform="translate(-91.459 -28.315)" fill="#c42359"/>
      <path id="Path_823" data-name="Path 823" d="M134.111,108.536,129.4,111.5s2.191,6.051,7.728,4.317a107.523,107.523,0,0,1,11.733-3.266c1.236-.1,1.115-4.486,1.115-4.486a30.693,30.693,0,0,0-4.085-2.07C145.249,105.927,134.111,108.536,134.111,108.536Z" transform="translate(-93.977 -27.485)" fill="#ef9800" opacity="0.6"/>
      <path id="Path_824" data-name="Path 824" d="M145.1,103.394s-5.858,2.656-7.584,1.854-3.587-1.854-4.815-1.436-4.309,3.106-4.438,3.724-.12,4.687.209,4.687.915-.706.915-.706.08,1.035.5,1.164l.409.12a1.966,1.966,0,0,0,1.661.915,3.684,3.684,0,0,0,1.156.249,1.059,1.059,0,0,0,.8-.586l-.49-.538-.128-.12,2.608-1.661s2.239,1.7,4.229.746a20.6,20.6,0,0,1,4.061-1.324,17.758,17.758,0,0,1,2.656-.634S147.3,102.559,145.1,103.394Z" transform="translate(-93.737 -26.958)" fill="#e5a972"/>
      <path id="Path_825" data-name="Path 825" d="M159.149,53.833c-1.605-3.4-4.221-3.354-6.252-3.6-1.685,2.688-4.558,8.234-13.923,14.87s-13.1,11.789-13.1,11.789a36.225,36.225,0,0,0-1.677,5.256,14.445,14.445,0,0,1-1.9,4.269s6.845-6.677,19.589-14.7S157.368,58.873,159.149,53.833Z" transform="translate(-92.573 -16.471)" fill="#303031"/>
      <path id="Path_826" data-name="Path 826" d="M152.19,105.176a9.381,9.381,0,0,0-1.091-3.346c-1.067.6-2.079.642-2.2,1.453,0,0,1.605-2.351,2.111,7.014s1,32.951,1,32.951l1.605,42.533.61,42.942.465,5.618s.8-.177,2.078-.345C156.74,233.89,152.945,109.807,152.19,105.176Z" transform="translate(-97.829 -26.662)" fill="#303031"/>
      <path id="Path_827" data-name="Path 827" d="M145.4,123.427h0c0-.8-.056-1.605-.08-2.327-13.715,7.447-26.747,33.489-26.747,33.489h0c.1,1.172.177,2.359.225,3.587C118.779,158.192,133.97,129.711,145.4,123.427Z" transform="translate(-91.839 -30.468)" fill="#303031"/>
      <path id="Path_828" data-name="Path 828" d="M159.992,78.88s2.857,14.445,1.067,14.726-9.47,3.659-9.47,3.659,3.547-3.21,5.979-5.16S160.353,83.406,159.992,78.88Z" transform="translate(-98.36 -22.129)" fill="#ef9800" opacity="0.7"/>
      <g id="Group_17" data-name="Group 17" transform="translate(61.36 71.517)" opacity="0.6">
        <path id="Path_829" data-name="Path 829" d="M173.18,240.033,161.72,128.38s1.083,90.338,1.453,110.088a13.33,13.33,0,0,1,5.08.594A12.841,12.841,0,0,0,173.18,240.033Z" transform="translate(-161.72 -103.422)" fill="#ef9800"/>
        <path id="Path_830" data-name="Path 830" d="M189.335,227.238c-5.048-5.674-19.766-103.427-20.753-111.548S163.39,97.28,163.39,97.28l16.195,135.046h.056c3.683-2,5.834-.457,11.363.457a22.751,22.751,0,0,0,6.227,0A22.927,22.927,0,0,1,189.335,227.238Z" transform="translate(-162.05 -97.28)" fill="#ef9800"/>
      </g>
    </g>
  </g>
</svg>
