<svg xmlns="http://www.w3.org/2000/svg" width="74.121" height="207.94" viewBox="0 0 74.121 207.94">
  <g id="suit" transform="translate(-103.759 -41.613)">
    <g id="Group_20" data-name="Group 20" transform="translate(135.13 41.612)">
      <g id="Group_19" data-name="Group 19" transform="translate(3.958 26.315)">
        <path id="Path_873" data-name="Path 873" d="M151.5,66.38l-.4,6.471-7.544,2.624-5.982-2.125L137.01,66.4c.988,1.02,3.06,3.06,4.1,4.027a4.948,4.948,0,0,0,6.279,0C148.421,69.44,150.514,67.4,151.5,66.38Z" transform="translate(-137.01 -66.38)" fill="#f7e0b0" fill-rule="evenodd"/>
      </g>
      <path id="Path_874" data-name="Path 874" d="M141.333,71.837c-1.232-1.158-3.889-3.782-4.537-4.452-.648-.7-.669-2.518-.988-2.975a4.934,4.934,0,0,1-1.583-2.624c-.648-2.093-1.392-5.068-.6-5.1.807-.053,2.178,2.231,2.178,2.231s-.191-2.093.319-2.688-.829-2.688-1.286-3.921,1.232-1.881,2.093-3.081a3.192,3.192,0,0,1,3.889-.7c1.371.807,6.7-1.477,8.075-2.306,1.073-.648,3.57.722,4.431,1.9s.053,3.379-.4,4.611-.6,2.869-.106,3.464c.51.6.319,2.688.319,2.688s1.371-2.284,2.178-2.231.053,3.028-.6,5.1a4.826,4.826,0,0,1-1.583,2.624c-.319.457-.351,2.284-.988,2.975s-3.3,3.326-4.537,4.452A4.908,4.908,0,0,1,141.333,71.837Z" transform="translate(-133.285 -41.335)" fill="#f7e0b0" fill-rule="evenodd"/>
      <path id="Path_875" data-name="Path 875" d="M133.857,56.984a29.1,29.1,0,0,1-.457-3.517,17.336,17.336,0,0,1,1.721-7.246,13.139,13.139,0,0,1,5.121-4.027,14.413,14.413,0,0,1,8.107,0,13.372,13.372,0,0,1,5.121,4.027,17.667,17.667,0,0,1,1.721,7.246c-.085,1.286-.372,3.007-.51,3.783a9.5,9.5,0,0,0-1.5,1.934s.191-2.093-.319-2.688a2.306,2.306,0,0,1-.425-2.571,5.3,5.3,0,0,0-.372-4.431c-.861-1.179-3.464-2.04-4.558-1.392-1.371.807-5.259,1.5-6.63.7a3.178,3.178,0,0,0-3.889.7,4.733,4.733,0,0,0-.723,4.1,2.963,2.963,0,0,1-.106,2.9c-.51.6-.319,2.688-.319,2.688S134.7,57.271,133.857,56.984Z" transform="translate(-133.278 -41.612)" fill="#020203" fill-rule="evenodd"/>
    </g>
    <path id="Path_876" data-name="Path 876" d="M147.815,73.484,137.19,69,140.3,79.434l9.392,22.536,6.386,12.208s4.048-1.551,4.048-2.125V101.906s.669-10.869.51-11c-.159-.159-9.552-19.082-9.552-19.082l-2.178,1.583Z" transform="translate(2.089 1.712)" fill="#fff" fill-rule="evenodd"/>
    <path id="Path_877" data-name="Path 877" d="M146.56,76.071l.669-2.847,1.1-.053,1.8,2.125v1.668s6.417,10.763,7.374,13.951c.935,3.2,1.827,23.449,1.827,23.449l-6.386-5.982s-1.934-10.6-1.774-10.6-1.477-15.374-2.847-20.315Z" transform="translate(2.675 1.972)" fill="#c31718" fill-rule="evenodd"/>
    <path id="Path_878" data-name="Path 878" d="M139.279,69.01s-3.591,2.709-4.431,3.113-13.982,1.445-15.162,5.472a179.511,179.511,0,0,0-3.814,22.3c-.213,4.08,3.942,24.788,5.961,29.994a19.663,19.663,0,0,0,5.047,7.7l-.478,13.982,2.5.478s-1.041,25.755-.967,27.986-13.982,21.409-14.758,22.429c-.754,1.041-3.591-1.445-5.4,1.881s-1.934,8.936-3.113,12.049-1.233,7.193,0,12.187,3.676,6.7,5.472,6.7,4.378-4.856,4.856-9.552c.478-4.717.351-5.876,4.643-9.69s25.489-25.7,26.541-27.986,1.179-10.115,2.284-9.361,2.146,6.577,1.668,9.69A146.893,146.893,0,0,0,147.716,219c.563,14.971.4,19.932.085,22.026-.351,2.061-1.233,5.684.085,6.173s9.361,0,9.361,0,.829-.616,2.571.212,14.142.478,16.9-1.318.085-3.729-2.847-4.08c-2.9-.351-6.3.914-8.851-2.847a17.261,17.261,0,0,0-2.709-2.571l.754-.266s1.392-28.549,2.231-34.914,3.379-21.9,2.412-30.271-5.206-18.594-4.8-32.311,1.668-44.115.7-47.441S153.23,71.868,153.23,71.868s5.206,11.783,6.439,16.15,1.179,19.614,1.179,19.614-6.3-13.791-10.03-21.462C147.036,78.424,147.471,77.266,139.279,69.01Z" transform="translate(0 1.712)" fill="#020203" fill-rule="evenodd"/>
    <path id="Path_879" data-name="Path 879" d="M127.323,134.441s5.61-4.994,9.286-2.9a2.017,2.017,0,0,0-.914-2.061c-1.179-.7-6.928,1.1-8.936,4.154Z" transform="translate(1.438 5.482)" fill="#fff" fill-rule="evenodd"/>
  </g>
</svg>
